<svg width="14" height="14" viewBox="0 0 14 14" fill="none" xmlns="http://www.w3.org/2000/svg">
<g clip-path="url(#clip0_2008_226)">
<path d="M11.6137 6.66699C11.6137 7.13199 11.7753 7.58199 12.0703 7.94116L12.3362 8.26366C12.557 8.53199 12.5878 8.90866 12.4145 9.20949L11.742 10.3745C11.5678 10.6753 11.2262 10.837 10.8837 10.7795L10.4712 10.7112C10.012 10.6345 9.542 10.7203 9.1395 10.9528C8.737 11.1862 8.42783 11.5512 8.2645 11.9862L8.11783 12.3762C7.99616 12.7012 7.68533 12.917 7.33783 12.917H5.99283C5.64533 12.917 5.3345 12.7012 5.21283 12.3762L5.06616 11.9862C4.90283 11.5512 4.59366 11.1862 4.19116 10.9528C3.78866 10.7203 3.31866 10.6345 2.8595 10.7112L2.447 10.7795C2.1045 10.837 1.76283 10.6753 1.58866 10.3745L0.916163 9.20949C0.74283 8.90866 0.773663 8.53199 0.994497 8.26366L1.26033 7.94116C1.55533 7.58199 1.717 7.13199 1.717 6.66699C1.717 6.20199 1.55533 5.75199 1.26033 5.39283L0.994497 5.07033C0.773663 4.80199 0.74283 4.42533 0.916163 4.12449L1.58866 2.95949C1.76283 2.65866 2.1045 2.49699 2.447 2.55449L2.8595 2.62283C3.31866 2.69949 3.78866 2.61366 4.19116 2.38116C4.59366 2.14783 4.90283 1.78283 5.06616 1.34783L5.21283 0.957826C5.3345 0.632826 5.64533 0.416992 5.99283 0.416992H7.33783C7.68533 0.416992 7.99616 0.632826 8.11783 0.957826L8.2645 1.34783C8.42783 1.78283 8.737 2.14783 9.1395 2.38116C9.542 2.61366 10.012 2.69949 10.4712 2.62283L10.8837 2.55449C11.2262 2.49699 11.5678 2.65866 11.742 2.95949L12.4145 4.12449C12.5878 4.42533 12.557 4.80199 12.3362 5.07033L12.0703 5.39283C11.7753 5.75199 11.6137 6.20199 11.6137 6.66699ZM4.16533 6.66699C4.16533 8.04783 5.2845 9.16699 6.66533 9.16699C8.04616 9.16699 9.16533 8.04783 9.16533 6.66699C9.16533 5.28616 8.04616 4.16699 6.66533 4.16699C5.2845 4.16699 4.16533 5.28616 4.16533 6.66699Z" fill="#222222"/>
</g>
<defs>
<clipPath id="clip0_2008_226">
<rect width="13.3333" height="13.3333" fill="white"/>
</clipPath>
</defs>
</svg>
