<svg width="25" height="25" viewBox="0 0 25 25" fill="none" xmlns="http://www.w3.org/2000/svg">
<rect width="25" height="25" rx="6.66667" fill="#F3F3F3"/>
<path d="M17.4476 12.5C17.4476 12.965 17.6093 13.415 17.9043 13.7742L18.1701 14.0967C18.391 14.365 18.4218 14.7417 18.2485 15.0425L17.576 16.2075C17.4018 16.5083 17.0601 16.67 16.7176 16.6125L16.3051 16.5442C15.846 16.4675 15.376 16.5533 14.9735 16.7858C14.571 17.0192 14.2618 17.3842 14.0985 17.8192L13.9518 18.2092C13.8301 18.5342 13.5193 18.75 13.1718 18.75H11.8268C11.4793 18.75 11.1685 18.5342 11.0468 18.2092L10.9001 17.8192C10.7368 17.3842 10.4276 17.0192 10.0251 16.7858C9.62265 16.5533 9.15265 16.4675 8.69348 16.5442L8.28098 16.6125C7.93848 16.67 7.59681 16.5083 7.42265 16.2075L6.75015 15.0425C6.57681 14.7417 6.60765 14.365 6.82848 14.0967L7.09431 13.7742C7.38931 13.415 7.55098 12.965 7.55098 12.5C7.55098 12.035 7.38931 11.585 7.09431 11.2258L6.82848 10.9033C6.60765 10.635 6.57681 10.2583 6.75015 9.9575L7.42265 8.7925C7.59681 8.49167 7.93848 8.33 8.28098 8.3875L8.69348 8.45583C9.15265 8.5325 9.62265 8.44667 10.0251 8.21417C10.4276 7.98083 10.7368 7.61583 10.9001 7.18083L11.0468 6.79083C11.1685 6.46583 11.4793 6.25 11.8268 6.25H13.1718C13.5193 6.25 13.8301 6.46583 13.9518 6.79083L14.0985 7.18083C14.2618 7.61583 14.571 7.98083 14.9735 8.21417C15.376 8.44667 15.846 8.5325 16.3051 8.45583L16.7176 8.3875C17.0601 8.33 17.4018 8.49167 17.576 8.7925L18.2485 9.9575C18.4218 10.2583 18.391 10.635 18.1701 10.9033L17.9043 11.2258C17.6093 11.585 17.4476 12.035 17.4476 12.5ZM9.99931 12.5C9.99931 13.8808 11.1185 15 12.4993 15C13.8801 15 14.9993 13.8808 14.9993 12.5C14.9993 11.1192 13.8801 10 12.4993 10C11.1185 10 9.99931 11.1192 9.99931 12.5Z" fill="#222222"/>
</svg>
