<svg width="48" height="48" viewBox="0 0 48 48" fill="none" xmlns="http://www.w3.org/2000/svg">
<rect width="48" height="48" rx="14" fill="url(#paint0_linear_2008_272)"/>
<path d="M28.6639 29.2367C29.2549 30.2367 28.5339 31.4997 27.3719 31.4997H13.1299C11.9679 31.4997 11.2469 30.2367 11.8379 29.2367L18.9599 17.1847C19.5399 16.2027 20.9619 16.2027 21.5419 17.1847L28.6639 29.2367ZM15.7509 28.4997H24.7509L20.2509 20.9997L15.7509 28.4997ZM30.0009 17.9997C30.0009 17.1717 30.6729 16.4997 31.5009 16.4997C32.3289 16.4997 33.0009 17.1717 33.0009 17.9997V29.9997C33.0009 30.8277 32.3289 31.4997 31.5009 31.4997C30.6729 31.4997 30.0009 30.8277 30.0009 29.9997V17.9997Z" fill="url(#paint1_linear_2008_272)"/>
<defs>
<linearGradient id="paint0_linear_2008_272" x1="48" y1="24" x2="0" y2="24" gradientUnits="userSpaceOnUse">
<stop stop-color="#A781FF" stop-opacity="0.1"/>
<stop offset="1" stop-color="#1BBBFF" stop-opacity="0.1"/>
</linearGradient>
<linearGradient id="paint1_linear_2008_272" x1="7.37482" y1="2.55124" x2="-13.9991" y2="2.55124" gradientUnits="userSpaceOnUse">
<stop stop-color="#BC2EFF"/>
<stop offset="1" stop-color="#359CFF"/>
</linearGradient>
</defs>
</svg>
