<svg width="15" height="15" viewBox="0 0 15 15" fill="none" xmlns="http://www.w3.org/2000/svg">
<g clip-path="url(#clip0_2008_208)">
<path d="M0 3.33333C0 1.4925 1.4925 0 3.33333 0H11.6667C13.5075 0 15 1.4925 15 3.33333V11.6667C15 13.5075 13.5075 15 11.6667 15H3.33333C1.4925 15 0 13.5075 0 11.6667V3.33333ZM3.75 5C3.75 5.46 4.12333 5.83333 4.58333 5.83333H6.66667V10.4167C6.66667 10.8767 7.04 11.25 7.5 11.25C7.96 11.25 8.33333 10.8767 8.33333 10.4167V5.83333H10.4167C10.8767 5.83333 11.25 5.46 11.25 5C11.25 4.54 10.8767 4.16667 10.4167 4.16667H4.58333C4.12333 4.16667 3.75 4.54 3.75 5Z" fill="#888888"/>
</g>
<defs>
<clipPath id="clip0_2008_208">
<rect width="15" height="15" fill="white"/>
</clipPath>
</defs>
</svg>
