<svg width="15" height="15" viewBox="0 0 15 15" fill="none" xmlns="http://www.w3.org/2000/svg">
<g clip-path="url(#clip0_2008_198)">
<path d="M0 3.33333C0 1.4925 1.4925 0 3.33333 0H11.6667C13.5075 0 15 1.4925 15 3.33333V11.6667C15 13.5075 13.5075 15 11.6667 15H3.33333C1.4925 15 0 13.5075 0 11.6667V3.33333ZM6.66667 6.66667H4.16667C3.70667 6.66667 3.33333 7.04 3.33333 7.5C3.33333 7.96 3.70667 8.33333 4.16667 8.33333H6.66667V10.8333C6.66667 11.2933 7.04 11.6667 7.5 11.6667C7.96 11.6667 8.33333 11.2933 8.33333 10.8333V8.33333H10.8333C11.2933 8.33333 11.6667 7.96 11.6667 7.5C11.6667 7.04 11.2933 6.66667 10.8333 6.66667H8.33333V4.16667C8.33333 3.70667 7.96 3.33333 7.5 3.33333C7.04 3.33333 6.66667 3.70667 6.66667 4.16667V6.66667Z" fill="#888888"/>
</g>
<defs>
<clipPath id="clip0_2008_198">
<rect width="15" height="15" fill="white"/>
</clipPath>
</defs>
</svg>
