<svg width="15" height="15" viewBox="0 0 15 15" fill="none" xmlns="http://www.w3.org/2000/svg">
<g clip-path="url(#clip0_2008_214)">
<path d="M0 3.33333C0 1.4925 1.4925 0 3.33333 0H11.6667C13.5075 0 15 1.4925 15 3.33333V11.6667C15 13.5075 13.5075 15 11.6667 15H3.33333C1.4925 15 0 13.5075 0 11.6667V3.33333ZM3.75 4.79167C3.75 5.8275 5.42917 6.66667 7.5 6.66667C9.57083 6.66667 11.25 5.8275 11.25 4.79167C11.25 3.75583 9.57083 2.91667 7.5 2.91667C5.42917 2.91667 3.75 3.75583 3.75 4.79167ZM11.25 5.91667C11.25 6.9525 9.57083 7.79167 7.5 7.79167C5.42917 7.79167 3.75 6.9525 3.75 5.91667C3.75 5.91667 3.75 6.89917 3.75 7.41667C3.75 8.4525 5.42917 9.29167 7.5 9.29167C9.57083 9.29167 11.25 8.4525 11.25 7.41667C11.25 6.89917 11.25 5.91667 11.25 5.91667ZM11.25 8.54167C11.25 9.5775 9.57083 10.4167 7.5 10.4167C5.42917 10.4167 3.75 9.5775 3.75 8.54167C3.75 8.54167 3.75 9.52417 3.75 10.0417C3.75 11.0775 5.42917 11.9167 7.5 11.9167C9.57083 11.9167 11.25 11.0775 11.25 10.0417C11.25 9.52417 11.25 8.54167 11.25 8.54167Z" fill="#888888"/>
</g>
<defs>
<clipPath id="clip0_2008_214">
<rect width="15" height="15" fill="white"/>
</clipPath>
</defs>
</svg>
