<svg width="15" height="15" viewBox="0 0 15 15" fill="none" xmlns="http://www.w3.org/2000/svg">
<g clip-path="url(#clip0_2008_203)">
<path d="M8.75 15C8.29 15 7.91667 14.6267 7.91667 14.1667V8.75C7.91667 8.29 8.29 7.91667 8.75 7.91667H14.1667C14.6267 7.91667 15 8.29 15 8.75V11.6667C15 13.5075 13.5075 15 11.6667 15H8.75ZM8.75 7.08333C8.29 7.08333 7.91667 6.71 7.91667 6.25V0.833334C7.91667 0.373334 8.29 3.57628e-07 8.75 3.57628e-07H11.6667C13.5075 3.57628e-07 15 1.4925 15 3.33333V6.25C15 6.71 14.6267 7.08333 14.1667 7.08333H8.75ZM3.33333 15C1.4925 15 0 13.5075 0 11.6667L0 3.33333C0 1.4925 1.4925 3.57628e-07 3.33333 3.57628e-07H6.25C6.71 3.57628e-07 7.08333 0.373334 7.08333 0.833334L7.08333 14.1667C7.08333 14.6267 6.71 15 6.25 15H3.33333Z" fill="#888888"/>
</g>
<defs>
<clipPath id="clip0_2008_203">
<rect width="15" height="15" fill="white"/>
</clipPath>
</defs>
</svg>
