<svg width="1354" height="48" viewBox="0 0 1354 48" fill="none" xmlns="http://www.w3.org/2000/svg">
<g opacity="0.8">
<mask id="mask0_2008_328" style="mask-type:alpha" maskUnits="userSpaceOnUse" x="0" y="0" width="1354" height="48">
<rect y="0.000976562" width="1354" height="47.0139" fill="url(#paint0_linear_2008_328)"/>
</mask>
<g mask="url(#mask0_2008_328)">
</g>
<g clip-path="url(#clip0_2008_328)">
<g clip-path="url(#clip1_2008_328)">
<path d="M50.2824 29.3071V20.2177H50.2429L47.4518 29.3071H44.5628L41.7707 20.2177H41.7322V29.3071H38.8027V17.4745H43.6782L45.9969 25.5458H46.0365L48.3373 17.4557H53.2119V29.2874H50.2824V29.3071ZM63.807 24.6641C63.807 24.9586 63.7872 25.5063 63.7872 25.5063H57.4973C57.5557 26.4276 58.3029 27.0543 59.5017 27.0543C60.7213 27.0543 61.5457 26.5847 62.1169 26.133H62.2533L63.1577 28.4649C62.5883 28.9147 61.2907 29.5029 59.5601 29.5029C56.769 29.5029 54.7646 27.7206 54.7646 24.6255C54.7646 21.569 56.769 19.6295 59.3841 19.6295C62.0378 19.6295 63.807 21.6669 63.807 24.6641ZM57.5952 23.4897H61.2314C61.1533 22.7444 60.4842 22.0198 59.4236 22.0198C58.3424 22.0198 57.7128 22.7255 57.5952 23.4897ZM72.7111 21.0985L71.7089 23.3127H71.5705C70.765 22.431 69.6442 21.9802 68.7794 21.9802C68.0529 21.9802 67.7772 22.2936 67.7772 22.6079C67.7772 23.0191 67.9344 23.0775 69.9595 23.5678C71.8463 24.0176 73.0847 24.7431 73.0847 26.565C73.0847 28.4649 71.7484 29.5029 69.4287 29.5029C67.1288 29.5029 65.4773 28.6409 64.829 27.9558L65.8904 25.5853H66.0278C66.8531 26.2704 67.8751 26.9367 69.3299 26.9367C70.1957 26.9367 70.3528 26.7024 70.3528 26.388C70.3528 26.0756 70.175 25.8987 68.1311 25.3896C65.93 24.841 65.084 23.9592 65.084 22.5289C65.084 20.7465 66.52 19.6107 68.6627 19.6107C70.7057 19.6295 72.2791 20.5894 72.7111 21.0985ZM81.8118 21.0985L80.8096 23.3127H80.6732C79.8667 22.431 78.7459 21.9802 77.8811 21.9802C77.1537 21.9802 76.878 22.2936 76.878 22.6079C76.878 23.0191 77.0361 23.0775 79.0612 23.5678C80.948 24.0176 82.1854 24.7431 82.1854 26.565C82.1854 28.4649 80.8492 29.5029 78.5304 29.5029C76.2296 29.5029 74.579 28.6409 73.9297 27.9558L74.9922 25.5853H75.1295C75.9548 26.2704 76.9768 26.9367 78.4316 26.9367C79.2965 26.9367 79.4536 26.7024 79.4536 26.388C79.4536 26.0756 79.2776 25.8987 77.2328 25.3896C75.0307 24.841 74.1857 23.9592 74.1857 22.5289C74.1857 20.7465 75.6208 19.6107 77.7635 19.6107C79.8272 19.6295 81.3997 20.5894 81.8118 21.0985ZM90.9728 23.2732V29.3071H88.752L88.5158 28.0537H88.4565C88.0048 28.8573 87.0609 29.5029 85.7237 29.5029C83.8962 29.5029 82.9524 28.3275 82.9524 26.7805C82.9524 25.2325 83.66 24.2528 85.8818 23.8218C88.1027 23.3908 88.2598 23.2346 88.2598 22.7641C88.2598 22.3143 87.8279 22.0593 86.9433 22.0593C85.9806 22.0593 84.8994 22.7444 84.3094 23.6261H84.171L83.0512 21.3347C84.0929 20.3155 85.4292 19.6295 87.1193 19.6295C89.262 19.6295 90.9728 21.0204 90.9728 23.2732ZM88.2598 25.1148C88.1027 25.3698 87.8081 25.5458 86.805 25.7811C85.8423 26.0163 85.7049 26.2902 85.7049 26.6628C85.7049 27.0345 86.0192 27.2115 86.5104 27.2115C87.2971 27.2115 88.2994 26.7024 88.2994 25.9382V25.1148H88.2598ZM98.8945 21.0797H98.9538L99.1109 19.8253H101.313V28.0932C101.313 31.0123 99.6614 32.6187 96.6539 32.6187C94.9431 32.6187 93.6266 32.0493 92.8201 31.4621L93.6651 29.0521H93.8035C94.6099 29.6996 95.4748 30.091 96.5551 30.091C97.9911 30.091 98.5011 29.5226 98.5011 28.2494V27.3874H98.4418C98.0297 27.9944 97.2241 28.5044 96.0055 28.5044C93.7442 28.5044 92.1717 26.7409 92.1717 24.2331C92.1717 21.4909 94.0387 19.6107 96.2408 19.6107C97.577 19.6295 98.5011 20.4134 98.8945 21.0797ZM95.0616 24.155C95.0616 25.3115 95.7891 26.0361 96.8891 26.0361C97.9506 26.0361 98.678 25.3698 98.678 24.1352C98.678 22.9599 98.0494 22.1176 96.8891 22.1176C95.6912 22.1176 95.0616 22.9984 95.0616 24.155ZM111.73 24.6641C111.73 24.9586 111.711 25.5063 111.711 25.5063H105.421C105.48 26.4276 106.227 27.0543 107.426 27.0543C108.645 27.0543 109.471 26.5847 110.04 26.133H110.178L111.062 28.4847C110.493 28.9354 109.195 29.5226 107.465 29.5226C104.673 29.5226 102.668 27.7403 102.668 24.6443C102.668 21.5888 104.673 19.6493 107.288 19.6493C109.961 19.6295 111.73 21.6669 111.73 24.6641ZM105.518 23.4897H109.156C109.077 22.7444 108.408 22.0198 107.347 22.0198C106.285 22.0198 105.637 22.7255 105.518 23.4897ZM119.613 17.4745C121.953 17.4745 123.21 18.6104 123.21 20.5113C123.21 21.8626 122.581 22.7048 121.343 23.2346V23.2732C122.463 23.7052 123.21 24.6255 123.21 26.1537C123.21 27.682 122.345 29.3071 119.18 29.3071H113.244V17.4745H119.613ZM116.252 22.2936H119.082C119.79 22.2936 120.184 21.8824 120.184 21.2754C120.184 20.6872 119.869 20.2177 118.984 20.2177H116.252V22.2936ZM116.252 26.565H119.082C119.79 26.565 120.184 26.1537 120.184 25.527C120.184 24.8993 119.869 24.4297 118.984 24.4297H116.252V26.565ZM127.849 16.9466C127.849 17.9648 127.221 18.7092 126.08 18.7092C124.94 18.7092 124.311 17.9648 124.311 16.9466C124.311 15.9077 124.94 15.2217 126.08 15.2217C127.221 15.2217 127.849 15.9077 127.849 16.9466ZM124.665 29.3071V19.8253H127.456V29.2874H124.665V29.3071ZM135.712 20.4134L135.299 22.9599H135.162C134.832 22.5938 134.358 22.3868 133.864 22.3924C132.745 22.3924 132.095 23.4106 132.095 25.1148V29.3071H129.304V19.8253H131.604L131.761 21.0797H131.82C132.331 20.0605 133.118 19.6295 133.982 19.6295C134.651 19.6295 135.359 19.8845 135.712 20.4134ZM143.241 29.3071L143.005 28.0537H142.945C142.396 28.9147 141.57 29.5029 140.056 29.5029C137.501 29.5029 135.889 27.4665 135.889 24.7036C135.889 21.8626 137.58 19.6295 140.135 19.6295C141.255 19.6295 142.179 20.0605 142.71 20.8049H142.75V16.7499H145.462V29.3071H143.241ZM138.681 24.586C138.681 26.0163 139.506 26.9178 140.744 26.9178C141.983 26.9178 142.828 26.1142 142.828 24.5662C142.828 23.1358 142.002 22.1176 140.784 22.1176C139.564 22.1176 138.681 23.1565 138.681 24.586ZM29.014 14.7126C27.7578 14.7164 26.5796 15.3215 25.8493 16.3387L21.0726 22.9984C20.8327 23.3429 20.396 23.4915 19.9951 23.3664C19.5943 23.2403 19.3214 22.8695 19.3232 22.4507C19.3232 22.255 19.3825 22.0593 19.4804 21.9219L23.5099 15.9077C23.9381 15.2697 24.1639 14.5197 24.1583 13.7527C24.1602 12.7298 23.7536 11.7474 23.0272 11.0228C22.2997 10.2991 21.3135 9.89262 20.2859 9.89356H0V13.7527H17.3772C17.3744 14.8227 16.5048 15.6894 15.4302 15.6922H0C0 17.0633 0.294544 18.3761 0.805527 19.5514H13.4851C13.4832 20.6214 12.6127 21.4881 11.539 21.4909H1.94606C3.7745 23.9282 6.65501 25.3595 9.71056 25.3501H14.4873C15.0048 25.3708 15.4132 25.7943 15.4132 26.3099C15.4132 26.8256 15.0048 27.2491 14.4873 27.2698H9.6908L3.20423 36.9277H14.939C20.3057 36.9277 24.866 33.4402 26.4591 28.6211L28.6404 22.0198C29.3472 19.9015 30.626 18.0166 32.3359 16.573C31.6358 15.4137 30.3738 14.706 29.014 14.7126ZM29.014 17.3569C28.615 17.3503 28.2923 17.0294 28.2866 16.6323C28.2923 16.2352 28.615 15.9143 29.014 15.9077C29.4074 15.9077 29.7405 16.2399 29.7405 16.6323C29.7424 16.8243 29.6662 17.0097 29.5288 17.1452C29.3923 17.2816 29.207 17.3579 29.014 17.3569Z" fill="white"/>
</g>
</g>
<g clip-path="url(#clip2_2008_328)">
<path d="M246.77 35.083V32.3197H248.337C250.387 32.3197 250.507 30.3981 250.507 30.3981L246.333 18.7117H242.725V30.9512H239.459V16.2079C239.459 14.3907 240.036 13.1106 241.191 12.3695C242.345 11.6274 243.927 11.2559 245.938 11.2559C246.03 11.2559 246.17 11.2606 246.356 11.27C246.541 11.2794 246.681 11.2841 246.775 11.2841V13.6769C246.588 13.6552 246.402 13.6458 246.216 13.6486C245.788 13.6486 245.433 13.658 245.155 13.6769C244.842 13.7013 244.532 13.7624 244.233 13.8574C243.899 13.959 243.634 14.0935 243.438 14.26C243.242 14.4274 243.075 14.6776 242.935 15.0115C242.796 15.3454 242.725 15.7442 242.725 16.2079H246.775V16.2173L248.651 16.2079L252.299 26.3142L256.666 16.2079H260.152C260.152 16.2079 253.906 30.2946 253.159 31.84C252.114 34.0042 251.23 35.083 248.94 35.083H246.77ZM197.721 30.9512V21.7713C197.721 19.8243 198.214 18.4097 199.2 17.5284C200.187 16.6481 201.685 16.2079 203.695 16.2079H207.773V18.7117H204.533C203.248 18.7117 202.337 19.0268 201.797 19.6569C201.257 20.288 200.987 21.2794 200.987 22.6338V30.9512H197.721ZM209.865 30.9512C207.408 30.9512 206.18 29.4209 206.18 26.3612C206.18 24.9335 206.487 23.8114 207.102 22.995C207.715 22.1795 208.637 21.7713 209.865 21.7713H216.567V20.826C216.567 19.4161 215.877 18.7117 214.5 18.7117H210.183V16.2079H215.673C217.032 16.2079 218.065 16.6067 218.772 17.4043C219.48 18.2019 219.833 19.2487 219.833 20.5476V28.4474C219.833 30.1169 218.995 30.9512 217.321 30.9512H209.865ZM222.336 30.9512V21.7713C222.336 19.8243 222.829 18.4097 223.817 17.5284C224.803 16.6481 226.301 16.2079 228.311 16.2079H230.933V18.7117H229.149C227.864 18.7117 226.952 19.0268 226.412 19.6569C225.873 20.288 225.603 21.2794 225.603 22.6338V30.9512H222.336ZM233.258 30.9512V16.2079H236.524V30.9512H233.258ZM211.122 28.4474H215.729C216.287 28.4474 216.567 28.1699 216.567 27.6131V24.2751H211.122C210.08 24.2751 209.559 24.9701 209.559 26.3612C209.559 27.7523 210.08 28.4474 211.122 28.4474ZM233.258 14.26V11.2559H236.524V14.26H233.258Z" fill="white"/>
</g>
<g clip-path="url(#clip3_2008_328)">
<g clip-path="url(#clip4_2008_328)">
<path d="M333.416 27.9023L333.404 27.8618L341.447 20.5774V17.0674H328.542V20.5774H336.251L336.263 20.6113L328.298 27.9023V31.4122H341.577V27.9023H333.416ZM349.499 16.7332C348.009 16.7332 346.796 16.9545 345.859 17.3989C344.986 17.7849 344.251 18.4232 343.747 19.2301C343.266 20.0407 342.965 20.9427 342.86 21.8776L346.777 22.4227C346.918 21.597 347.201 21.0123 347.626 20.6678C348.109 20.3072 348.705 20.1254 349.309 20.1528C350.103 20.1528 350.68 20.3627 351.039 20.7836C351.393 21.2035 351.574 21.7853 351.574 22.5536V22.9349H347.81C345.893 22.9349 344.516 23.3557 343.679 24.1965C342.841 25.0373 342.423 26.1473 342.425 27.5257C342.425 28.9379 342.843 29.9896 343.679 30.6788C344.514 31.3679 345.565 31.7107 346.832 31.7059C348.403 31.7059 349.611 31.1721 350.456 30.1026C350.955 29.4463 351.311 28.6941 351.503 27.8938H351.646L352.186 31.4037H355.733V22.515C355.733 20.6781 355.245 19.2555 354.266 18.2462C353.286 17.2369 351.697 16.7332 349.499 16.7332ZM350.739 27.6904C350.176 28.1546 349.438 28.3853 348.521 28.3853C347.764 28.3853 347.238 28.2544 346.944 27.9927C346.654 27.7422 346.492 27.376 346.5 26.9937C346.483 26.6341 346.617 26.2838 346.868 26.0249C347.14 25.7726 347.505 25.6408 347.877 25.6615H351.579V25.9035C351.595 26.5964 351.284 27.2573 350.739 27.6904ZM377.187 17.0674H372.996V31.4141H377.187V17.0674ZM401.935 17.0674C400.751 17.0674 399.817 17.4808 399.135 18.3074C398.645 18.9015 398.272 19.779 398.017 20.9408H397.894L397.346 17.0674H393.766V31.4122H397.958V24.0553C397.958 23.1288 398.177 22.4171 398.617 21.9218C399.056 21.4285 399.866 21.1799 401.047 21.1799H402.638V17.0674H401.935ZM389.611 17.5363C388.631 16.9601 387.397 16.6739 385.908 16.6739C383.561 16.6739 381.725 17.3348 380.4 18.6567C379.074 19.9776 378.411 21.7994 378.411 24.1212C378.377 25.5259 378.688 26.9175 379.314 28.1753C379.89 29.2995 380.784 30.2315 381.886 30.8558C382.996 31.4903 384.316 31.8086 385.847 31.8095C387.172 31.8095 388.278 31.608 389.166 31.2041C390 30.8426 390.727 30.2749 391.278 29.5546C391.801 28.8494 392.19 28.0538 392.426 27.2084L388.813 26.2085C388.662 26.7583 388.369 27.2592 387.964 27.6631C387.556 28.0661 386.872 28.2685 385.913 28.2685C384.773 28.2685 383.923 27.9456 383.364 27.2997C382.958 26.8327 382.703 26.1661 382.591 25.3018H392.48C392.521 24.8989 392.542 24.5599 392.542 24.2878V23.3943C392.566 22.1939 392.315 21.0029 391.809 19.9136C391.334 18.9184 390.567 18.0899 389.611 17.5363ZM385.786 20.0944C387.486 20.0944 388.45 20.921 388.678 22.5762H382.665C382.761 22.0235 382.992 21.5029 383.338 21.0604C383.89 20.4145 384.705 20.0925 385.786 20.0944ZM375.136 11.2857C374.499 11.2631 373.882 11.4984 373.421 11.9362C372.969 12.3778 372.725 12.9879 372.748 13.6178C372.725 14.2505 372.969 14.8653 373.422 15.3125C373.876 15.7616 374.497 16.0026 375.136 15.9781C375.771 16.0026 376.387 15.7606 376.835 15.3125C377.279 14.8596 377.516 14.2476 377.492 13.6178C377.521 12.9907 377.283 12.3816 376.835 11.9391C376.385 11.4947 375.77 11.2584 375.138 11.2866L375.136 11.2857ZM366.478 16.6739C365.05 16.6739 363.903 17.1173 363.036 18.0042C362.394 18.6624 361.924 19.6425 361.623 20.9474H361.489L360.941 17.0731H357.361V35.5369H361.553V27.9324H361.705C361.834 28.4389 362.013 28.9323 362.241 29.403C362.597 30.1722 363.179 30.8162 363.909 31.2484C364.668 31.6579 365.523 31.8622 366.386 31.8396C368.141 31.8396 369.477 31.1636 370.395 29.8107C371.313 28.4587 371.772 26.5719 371.772 24.1513C371.772 21.8117 371.328 19.9814 370.441 18.6586C369.552 17.3358 368.231 16.6739 366.478 16.6739ZM366.902 27.07C366.414 27.7705 365.649 28.1207 364.608 28.1207C363.738 28.1612 362.902 27.7836 362.361 27.1058C361.817 26.4316 361.547 25.509 361.548 24.3377V24.0638C361.548 22.8746 361.819 21.9642 362.361 21.3325C362.901 20.7007 363.65 20.3881 364.608 20.3947C365.667 20.3947 366.437 20.7271 366.917 21.3937C367.398 22.0584 367.638 22.9867 367.638 24.1777C367.641 25.4092 367.397 26.3733 366.906 27.07H366.902ZM326.675 27.9013H312.172V31.416H326.675V27.9013Z" fill="white"/>
</g>
</g>
<g clip-path="url(#clip5_2008_328)">
<g clip-path="url(#clip6_2008_328)">
<path d="M453.683 29.0009C452.103 29.0009 450.698 28.4521 449.471 27.3562L450.192 26.5049C450.743 27.0046 451.293 27.3708 451.842 27.6061C452.402 27.8405 453.03 27.9587 453.727 27.9587C454.415 27.9587 454.969 27.7978 455.39 27.4735C455.814 27.1409 456.024 26.7102 456.024 26.1823C456.024 25.6835 455.837 25.2873 455.465 24.9929C455.091 24.6994 454.385 24.4459 453.344 24.2306C452.116 23.9671 451.233 23.6091 450.693 23.1593C450.153 22.7086 449.884 22.068 449.884 21.2366C449.884 20.4243 450.202 19.7547 450.84 19.2249C451.479 18.697 452.288 18.4326 453.272 18.4326C454.636 18.4326 455.844 18.8533 456.894 19.6956L456.217 20.5897C455.304 19.8473 454.312 19.4748 453.242 19.4748C452.584 19.4748 452.054 19.6365 451.65 19.9591C451.249 20.2726 451.046 20.6742 451.046 21.163C451.046 21.671 451.239 22.0726 451.621 22.367C452.015 22.6605 452.756 22.924 453.846 23.1593C455.015 23.4137 455.863 23.7717 456.394 24.2306C456.933 24.6803 457.203 25.3018 457.203 26.0942C457.203 26.9646 456.874 27.6688 456.217 28.2085C455.559 28.7365 454.714 29.0009 453.683 29.0009ZM469.583 29.0154C468.277 29.0154 467.236 28.6283 466.46 27.856C465.684 27.0728 465.296 25.9715 465.296 24.5531V18.5798H466.46V24.4795C466.46 25.5853 466.735 26.4422 467.285 27.0482C467.845 27.6452 468.62 27.9441 469.611 27.9441C470.584 27.9441 471.345 27.6543 471.895 27.0773C472.444 26.5012 472.719 25.6589 472.719 24.5531V18.5798H473.883V24.4659C473.883 25.9324 473.495 27.0582 472.719 27.8405C471.943 28.6238 470.898 29.0154 469.583 29.0154ZM482.525 28.8537V18.5789H486.383C487.56 18.5789 488.497 18.8724 489.196 19.4594C489.893 20.0463 490.241 20.8487 490.241 21.8663C490.241 22.933 489.854 23.7608 489.078 24.346C488.312 24.9338 487.35 25.2273 486.191 25.2273H483.687V28.8528H482.525V28.8537ZM483.687 24.1724H486.235C487.089 24.1724 487.771 23.9671 488.282 23.5555C488.802 23.1339 489.063 22.5769 489.063 21.8818C489.063 21.1685 488.812 20.6188 488.312 20.2381C487.82 19.8473 487.148 19.6511 486.294 19.6511H483.687V24.1724ZM498.251 28.8537V18.5789H505.704V19.6356H499.415V23.1429H505.041V24.1997H499.415V27.796H505.777V28.8528H498.251V28.8537ZM514.009 28.8537V18.5789H518.441C519.708 18.5789 520.684 18.9215 521.371 19.6066C521.902 20.1345 522.167 20.8196 522.167 21.661C522.167 22.4824 521.911 23.1475 521.402 23.6572C520.891 24.1661 520.213 24.4986 519.368 24.6549L522.536 28.8528H521.106L518.117 24.8612H515.172V28.8528H514.008L514.009 28.8537ZM515.172 23.8199H518.338C519.123 23.8199 519.761 23.6281 520.253 23.2465C520.743 22.8649 520.989 22.3415 520.989 21.6764C520.989 21.0413 520.753 20.547 520.282 20.1944C519.82 19.8328 519.177 19.6511 518.352 19.6511H515.172V23.8199ZM530.541 28.8537V18.5789H531.705V23.1438H537.654V18.5789H538.818V28.8546H537.654V24.2315H531.705V28.8546H530.541V28.8537ZM551.745 29.0154C550.438 29.0154 549.398 28.6283 548.622 27.856C547.847 27.0728 547.459 25.9715 547.459 24.5531V18.5798H548.622V24.4795C548.622 25.5853 548.897 26.4422 549.447 27.0482C550.008 27.6452 550.782 27.9441 551.774 27.9441C552.745 27.9441 553.507 27.6543 554.056 27.0773C554.606 26.5012 554.881 25.6589 554.881 24.5531V18.5798H556.045V24.4659C556.045 25.9324 555.657 27.0582 554.881 27.8405C554.105 28.6238 553.06 29.0154 551.745 29.0154ZM564.686 28.8537V18.5789H565.864L569.619 24.1851L573.375 18.5789H574.553V28.8546H573.389V20.5306L569.635 26.0351H569.576L565.82 20.5461V28.8528H564.686V28.8537ZM582.479 28.8537L587.176 18.5071H588.266L592.964 28.8528H591.713L590.505 26.1378H584.893L583.671 28.8537H582.479ZM585.35 25.0965H590.048L587.707 19.8564L585.35 25.0965ZM600.887 28.8537V18.5789H601.977L608.471 26.812V18.5789H609.606V28.8546H608.679L602.022 20.4298V28.8546H600.887V28.8537Z" fill="white"/>
</g>
</g>
<g clip-path="url(#clip7_2008_328)">
<g clip-path="url(#clip8_2008_328)">
<path d="M771.815 19.395H768.519V30.922H771.815V19.395ZM771.815 15.5962H768.519V18.145H771.815V15.5962ZM699.933 15.5962H696.487V30.922H707.007V27.9838H699.933V15.5962ZM713.816 18.4366C710.148 18.4366 707.246 21.2516 707.246 24.8002C707.246 28.3488 710.148 31.1722 713.816 31.1722C717.483 31.1722 720.41 28.3563 720.41 24.8058C720.41 21.2553 717.505 18.4366 713.816 18.4366ZM713.816 28.1296C711.97 28.1296 710.592 26.7348 710.592 24.7908C710.592 22.8467 711.97 21.4632 713.816 21.4632C715.662 21.4632 717.039 22.8824 717.039 24.7908C717.039 26.7 715.662 28.1296 713.816 28.1296ZM734.233 28.3262C733.642 28.3262 733.126 27.9838 733.126 26.9314V22.0369H736.269V19.395H733.126V16.073H729.83V19.395H725.502V16.073H722.205V19.395H720.41V22.0369H722.205V26.9803C722.205 29.7464 723.534 31.1666 725.993 31.1666C727.103 31.1694 728.19 30.8468 729.118 30.2392L728.186 27.8164C727.719 28.1306 727.173 28.3083 726.611 28.33C726.019 28.33 725.503 27.9876 725.503 26.9352V22.0369H729.832V26.9803C729.832 29.7464 731.159 31.1666 733.619 31.1666C734.73 31.1685 735.816 30.8459 736.745 30.2392L735.813 27.8164C735.344 28.1306 734.797 28.3074 734.233 28.3262ZM755.072 23.9386C754.569 20.4973 751.554 18.0632 748.241 18.5438C746.559 18.7723 745.04 19.6658 744.026 21.0221C743.013 22.3783 742.592 24.0844 742.857 25.7539C743.44 29.7511 746.896 31.602 750.449 31.0866C752.058 30.8619 753.565 30.1715 754.783 29.1002L753.225 26.9502C752.335 27.7158 751.242 28.2086 750.078 28.3713C748.47 28.6027 746.966 28.0008 746.332 26.3906L755.17 25.1105C755.158 24.7183 755.126 24.3271 755.072 23.9386ZM745.967 24.2406C746.06 22.6689 747.13 21.4745 748.542 21.2723C750.025 21.0428 751.448 21.9457 751.866 23.3819L745.967 24.2406ZM790.853 23.9386C790.35 20.4973 787.334 18.0632 784.023 18.5438C782.34 18.7723 780.821 19.6649 779.808 21.0221C778.795 22.3783 778.373 24.0844 778.639 25.7539C779.223 29.7511 782.674 31.602 786.229 31.0866C787.839 30.8619 789.345 30.1715 790.562 29.1002L789.006 26.9502C788.115 27.7158 787.022 28.2086 785.857 28.3713C784.25 28.6027 782.746 28.0008 782.111 26.3906L790.95 25.1105C790.939 24.7183 790.907 24.3271 790.853 23.9386ZM781.748 24.2406C781.842 22.6689 782.909 21.4745 784.323 21.2723C785.804 21.0418 787.226 21.9466 787.639 23.3819L781.748 24.2406ZM777.228 15.5962H773.932V30.9202H777.228V15.5962ZM797.679 23.2596C796.547 23.0141 795.514 22.794 795.514 22.1093C795.514 21.5958 796.228 21.2516 796.99 21.2516C798.182 21.2704 799.352 21.5638 800.41 22.1093L801.517 19.6602C800.142 18.8231 798.552 18.398 796.94 18.4366C794.628 18.4366 792.167 19.7589 792.167 22.2551C792.167 24.6055 794.16 25.4087 796.597 26.0492C797.654 26.3436 798.714 26.5138 798.714 27.2493C798.714 27.9838 797.458 28.2773 796.694 28.2773C795.302 28.3036 793.945 27.8446 792.857 26.9784L791.676 29.5028C792.365 30.1386 794.061 31.1722 796.694 31.1722C798.984 31.1722 802.058 30.1687 802.058 27.1562C802.058 24.6544 799.778 23.7524 797.679 23.2596ZM741.366 19.395H738.07V30.922H741.366V19.395ZM741.366 15.5962H738.07V18.145H741.366V15.5962ZM756.476 30.922H759.914V24.6591H765.743V21.7529H759.914V18.5297H766.996V15.5962H756.476V30.922ZM690.048 16.7098V30.0539C690.048 33.8292 686.972 36.8887 683.178 36.8887H669.766C665.972 36.8887 662.896 33.8292 662.896 30.0539V16.7098C662.896 12.9336 665.972 9.87402 669.766 9.87402H683.178C686.972 9.87402 690.048 12.9336 690.048 16.7098ZM683.533 15.9254C678.858 15.9254 677.127 19.2454 675.734 21.9128L674.824 23.6189C673.349 26.448 672.248 28.1672 669.409 28.1672C668.668 28.1672 668.067 28.7654 668.067 29.5028C668.067 30.2402 668.668 30.8374 669.409 30.8383C674.084 30.8383 675.816 27.5183 677.208 24.851L678.116 23.1439C679.593 20.3157 680.695 18.5965 683.533 18.5965C684.274 18.5965 684.875 17.9983 684.877 17.26C684.875 16.5217 684.274 15.9244 683.533 15.9254Z" fill="white"/>
</g>
</g>
<g clip-path="url(#clip9_2008_328)">
<g clip-path="url(#clip10_2008_328)">
<path d="M951.239 27.9715C950.918 27.744 950.665 27.712 950.455 28.1455C946.858 35.7852 940.8 31.9715 941.407 32.3062C942.753 31.6997 946.285 28.925 945.754 25.0783C945.435 22.7266 943.382 21.6867 941.198 22.0656C937.391 22.7163 936 26.7473 936.706 30.3128C936.827 30.9306 937.048 31.4289 937.28 31.9273C932.988 35.3621 931.278 28.861 931.079 28.0806C931.068 28.0373 934.401 25.3171 935.328 18.8254C936.298 12.031 934.091 10.7842 931.829 10.8274C927.647 10.9036 926.521 19.4761 928.033 26.6166C927.912 26.6495 927.316 26.9748 926.368 27.0068C925.683 24.894 922.759 23.0407 921.997 23.7562C920.089 25.5447 922.461 29.0331 924.138 29.3048C923.133 35.3837 916.845 33.8783 918.014 26.2593C920.056 22.5311 921.622 16.9721 921.335 13.6229C921.236 12.4419 920.341 10.8491 918.323 10.9252C914.438 11.0766 914.02 19.6491 914.471 25.7393C914.45 25.5879 914.229 26.4765 912.64 26.9203C912.265 24.8724 908.899 22.8028 908.106 23.7995C906.626 25.6528 909.197 28.9588 910.411 29.1854C909.407 35.2652 903.117 33.7589 904.286 26.1408C906.34 22.4126 907.895 16.864 907.62 13.5157C907.521 12.3338 906.626 10.7409 904.607 10.8171C900.723 10.9685 900.303 19.541 900.755 25.6302C900.734 25.4788 900.513 26.4003 898.857 26.8338C898.803 24.1681 895.426 22.9542 894.61 23.7995C893.164 25.3171 894.941 28.4275 896.585 29.1854C895.581 35.2652 889.291 33.7589 890.46 26.1408C892.502 22.4126 894.069 16.8527 893.782 13.5044C893.694 12.3338 892.8 10.7409 890.78 10.8171C886.897 10.9685 886.587 19.9735 887.041 26.0637C885.76 31.4505 881.468 38.1698 882.03 24.6993C882.085 23.7562 882.141 23.398 881.666 23.0407C881.302 22.7708 880.486 22.8997 880.044 22.9109C879.503 22.9335 879.36 23.2466 879.25 23.713C878.974 24.9269 878.918 26.1079 878.874 27.7223C878.853 28.4811 878.787 28.8281 878.488 29.8577C878.19 30.8873 876.513 32.7613 875.586 32.4472C874.306 32.0138 874.725 28.4708 874.968 26.0317C875.167 24.1032 874.527 23.2476 872.894 22.9326C871.934 22.7379 871.349 22.7708 870.356 22.4558C869.407 22.1634 869.197 20.407 867.189 20.9928C866.086 21.3181 866.792 23.6039 866.527 25.3058C865.225 33.6611 862.522 33.8887 861.263 29.8351C866.913 16.2246 862.886 10.8603 860.535 10.8603C858.086 10.8603 855.283 12.518 856.463 23.1385C855.89 22.9768 855.713 22.8893 855.073 22.8893C851.509 22.878 849.07 25.7177 849.07 29.2174C849.07 32.718 851.509 35.5577 855.084 35.5577C857.191 35.5577 858.671 34.6155 859.796 33.1628C860.525 34.1924 861.418 35.5793 863.051 35.5144C867.906 35.3301 869.318 25.5447 869.485 24.9918C870.003 25.0679 870.499 25.2193 870.974 25.2955C871.769 25.4149 871.834 25.729 871.812 26.5084C871.603 33.1628 872.849 35.4928 875.686 35.4928C877.264 35.4928 878.676 33.9648 879.646 32.8807C880.375 34.3551 881.522 35.4486 883.078 35.4928C886.83 35.5793 888.276 29.7054 888.144 30.4755C888.044 31.082 889.357 35.4486 893.23 35.4702C898.019 35.4928 898.913 30.3231 899.012 29.4562C899.034 29.3048 899.024 29.2832 899.012 29.4562V29.5107C900.535 29.2287 901.319 28.4379 901.319 28.4379C901.319 28.4379 902.543 35.5577 907.057 35.4815C911.746 35.395 912.64 30.7246 912.751 29.8135C912.772 29.6189 912.761 29.5973 912.751 29.8135V29.8351C914.561 29.1854 915.035 28.546 915.035 28.546C915.035 28.546 916.006 35.5257 920.772 35.5896C925.021 35.6442 926.598 31.364 926.61 29.5756C927.327 29.586 928.652 29.1525 928.618 29.1318C928.618 29.1318 930.174 35.2333 934.522 35.5464C936.563 35.6987 938.097 34.4199 938.968 33.8351C941.021 35.4702 947.851 37.552 952.165 30.3664C952.784 29.3481 951.47 28.1238 951.239 27.9715ZM854.908 33.1844C852.822 33.1844 851.487 31.2879 851.487 29.2503C851.487 27.2127 852.711 25.3162 854.798 25.3162C855.735 25.3162 856.254 25.414 856.993 26.0421C857.125 26.5517 857.501 27.7336 857.688 28.2743C857.931 28.9898 858.229 29.6076 858.515 30.2696C858.086 31.9809 856.718 33.1844 854.908 33.1844ZM859.983 26.0966C859.895 25.9556 859.917 26.0421 859.819 25.9123C859.443 24.894 858.703 22.6176 858.615 20.028C858.515 17.1019 859.013 13.6671 860.48 13.6671C861.474 13.6671 862.532 20.6242 859.983 26.0966ZM889.346 23.051C889.115 21.3181 889.104 13.5693 890.99 13.7855C892.038 14.1974 890.329 21.5024 889.346 23.051ZM903.172 23.051C902.941 21.3181 902.929 13.5693 904.817 13.7855C905.865 14.1974 904.155 21.5024 903.172 23.051ZM916.889 23.1601C916.657 21.4262 916.646 13.6774 918.532 13.8946C919.58 14.2952 917.87 21.6105 916.889 23.1601ZM932.027 13.3201C933.76 13.1462 933.683 20.5696 930.218 25.2513C929.765 23.5607 929.081 13.905 932.027 13.3201ZM939.311 29.3048C938.759 26.5414 940.194 24.7313 941.672 24.5367C942.191 24.4605 942.941 24.7849 943.084 25.4036C943.327 26.563 943.051 28.2856 939.73 30.4642C939.74 30.4755 939.432 29.9113 939.311 29.3048ZM880.618 20.7869C881.799 20.7869 882.759 19.8438 882.759 18.6844C882.759 17.525 881.799 16.5829 880.618 16.5829C879.438 16.5829 878.477 17.525 878.477 18.6844C878.477 19.8438 879.438 20.7869 880.618 20.7869Z" fill="white"/>
</g>
</g>
<g clip-path="url(#clip11_2008_328)">
<g clip-path="url(#clip12_2008_328)">
<path d="M1046.49 35.7752L1046.08 34.7298H1044.79L1044.41 35.7752H1043.74L1045.11 32.1495H1045.72L1047.19 35.7752H1046.49ZM1045.88 34.1862L1045.57 33.3581C1045.52 33.2089 1045.46 33.0737 1045.42 32.9515C1045.39 33.0709 1045.36 33.1893 1045.31 33.304L1044.98 34.2002H1045.88V34.1862ZM1052.12 35.7752V33.332L1051.28 35.7752H1050.74L1049.91 33.291V35.7752H1049.29V32.1495H1050.12L1050.95 34.6487C1050.97 34.7429 1051 34.824 1051.03 34.893C1051.05 34.811 1051.08 34.7159 1051.12 34.6068L1051.96 32.1495H1052.71V35.7752H1052.12ZM1056.63 35.8293C1056.31 35.8293 1056.04 35.7752 1055.82 35.6941C1055.6 35.6064 1055.42 35.4488 1055.3 35.2455C1055.17 35.0441 1055.1 34.8156 1055.09 34.5806V34.4986L1055.69 34.4445L1055.7 34.5256C1055.71 34.6888 1055.75 34.811 1055.82 34.9061C1055.89 35.0012 1055.98 35.0823 1056.13 35.1374C1056.28 35.2045 1056.44 35.2325 1056.62 35.2325C1056.78 35.2325 1056.93 35.2045 1057.05 35.1635C1057.15 35.1318 1057.24 35.0702 1057.3 34.9882C1057.36 34.9173 1057.39 34.8315 1057.39 34.7429C1057.39 34.659 1057.36 34.5778 1057.3 34.5126C1057.25 34.4445 1057.16 34.3904 1057.04 34.3363C1056.94 34.2953 1056.75 34.2412 1056.44 34.1731C1056.12 34.092 1055.89 34.0239 1055.77 33.9558C1055.61 33.871 1055.47 33.7498 1055.36 33.6024C1055.27 33.4607 1055.23 33.2956 1055.23 33.1278C1055.23 32.9375 1055.28 32.7613 1055.39 32.5981C1055.5 32.4358 1055.66 32.2997 1055.86 32.2185C1056.07 32.1365 1056.28 32.0964 1056.52 32.0964C1056.78 32.0964 1057.02 32.1365 1057.22 32.2316C1057.44 32.3267 1057.6 32.4489 1057.71 32.6251C1057.82 32.8014 1057.88 32.9925 1057.9 33.2089V33.291L1057.29 33.332L1057.28 33.2499C1057.25 33.0597 1057.18 32.9105 1057.08 32.8154C1056.95 32.7202 1056.78 32.6662 1056.54 32.6662C1056.28 32.6662 1056.11 32.7063 1056 32.8014C1055.89 32.8834 1055.84 32.9786 1055.84 33.1007C1055.84 33.1958 1055.88 33.277 1055.94 33.345C1056 33.3991 1056.15 33.4672 1056.59 33.5754C1056.95 33.6574 1057.22 33.7386 1057.36 33.8066C1057.57 33.9018 1057.74 34.037 1057.83 34.1862C1057.94 34.3363 1057.99 34.5256 1057.99 34.7298C1057.99 34.9331 1057.94 35.1234 1057.82 35.2996C1057.71 35.4768 1057.55 35.612 1057.33 35.7071C1057.11 35.792 1056.87 35.833 1056.63 35.8293ZM1061.25 35.7752V32.7342H1060.12V32.1495H1063.02V32.7342H1061.89V35.7752H1061.25ZM1065.27 35.7752V32.1495H1067.92V32.7342H1065.9V33.6164H1067.79V34.2002H1065.9V35.1914H1068V35.7752H1065.27ZM1072.89 35.7752L1072.41 35.0152C1072.31 34.8539 1072.2 34.6991 1072.09 34.5536C1072 34.4585 1071.94 34.3764 1071.88 34.3363C1071.83 34.2981 1071.77 34.2701 1071.71 34.2543C1071.68 34.2543 1071.61 34.2412 1071.48 34.2412H1071.05V35.7752H1070.41V32.1495H1072.02C1072.33 32.1495 1072.57 32.1775 1072.75 32.2447C1072.92 32.3137 1073.07 32.4358 1073.16 32.6121C1073.27 32.7753 1073.31 32.9646 1073.31 33.1818C1073.31 33.4541 1073.23 33.6714 1073.05 33.8607C1072.91 34.009 1072.72 34.1134 1072.52 34.1591C1072.54 34.1862 1072.57 34.2002 1072.6 34.2272C1072.73 34.3503 1072.87 34.5126 1072.99 34.7019L1073.67 35.7752H1072.89ZM1071.92 33.6714C1072.11 33.6714 1072.27 33.6574 1072.38 33.6164C1072.48 33.5754 1072.56 33.5213 1072.6 33.4402C1072.65 33.3646 1072.68 33.2742 1072.68 33.1818C1072.68 33.0532 1072.62 32.9301 1072.53 32.8424C1072.43 32.7473 1072.26 32.7063 1072.03 32.7063H1071.03V33.6714H1071.92ZM1075.82 35.7752V32.1495H1077.08C1077.35 32.1495 1077.57 32.1635 1077.72 32.2046C1077.92 32.2586 1078.11 32.3407 1078.26 32.4759C1078.44 32.6391 1078.59 32.8424 1078.69 33.1007C1078.78 33.345 1078.82 33.6304 1078.82 33.9558C1078.82 34.2272 1078.79 34.4715 1078.73 34.6758C1078.67 34.8623 1078.59 35.0404 1078.49 35.2045C1078.39 35.3369 1078.28 35.4516 1078.15 35.5439C1078.03 35.6251 1077.88 35.6941 1077.72 35.7342C1077.56 35.7752 1077.35 35.8023 1077.15 35.8023H1075.82V35.7752ZM1077.08 35.1914C1077.3 35.1914 1077.46 35.1775 1077.58 35.1374C1077.68 35.1019 1077.77 35.0469 1077.85 34.9742C1077.95 34.8791 1078.03 34.7429 1078.08 34.5806C1078.13 34.4035 1078.16 34.1862 1078.16 33.9419C1078.16 33.6024 1078.11 33.332 1078 33.1548C1077.89 32.9786 1077.77 32.8564 1077.61 32.8014C1077.5 32.7613 1077.31 32.7342 1077.06 32.7342H1076.45V35.1914H1077.08ZM1083.56 35.7752L1083.16 34.7298H1081.85L1081.48 35.7752H1080.8L1082.18 32.1495H1082.78L1084.25 35.7752H1083.56ZM1082.96 34.1862L1082.65 33.3581C1082.59 33.2089 1082.54 33.0737 1082.5 32.9515C1082.47 33.0718 1082.44 33.1893 1082.39 33.304L1082.06 34.2002H1082.96V34.1862ZM1089.2 35.7752V33.332L1088.35 35.7752H1087.81L1086.97 33.291V35.7752H1086.37V32.1495H1087.2L1088.04 34.6487C1088.06 34.7429 1088.09 34.824 1088.12 34.893C1088.15 34.811 1088.19 34.7159 1088.21 34.6068L1089.05 32.1495H1089.8V35.7752H1089.2ZM1014.82 26.9376L1013.41 16.538L1008.36 26.9376H1007.82L1002.7 16.4709L1001.28 26.9376H999.598L1001.74 11.6777H1002.18L1008.09 23.8015L1013.95 11.6777H1014.38L1016.55 26.9376H1014.82ZM1057.55 26.9376L1056.13 16.538L1051.08 26.9376H1050.53L1045.41 16.4709L1044.01 26.9376H1042.31L1044.46 11.6777H1044.91L1050.81 23.8015L1056.66 11.6777H1057.1L1059.26 26.9376H1057.55ZM1123.92 27.3442C1123.02 27.3535 1122.15 27.0878 1121.41 26.5842C1120.67 26.0955 1119.97 25.2535 1119.35 24.0999L1119.28 23.9908L1120.77 23.0816L1120.83 23.2038C1121.68 24.8059 1122.68 25.6069 1123.77 25.6069C1124.24 25.6069 1124.69 25.4978 1125.1 25.2675C1125.51 25.0502 1125.83 24.7378 1126.05 24.3713C1126.26 24.0132 1126.37 23.6057 1126.37 23.1898C1126.37 22.7151 1126.21 22.2535 1125.9 21.7919C1125.45 21.1401 1124.61 20.339 1123.41 19.4158C1122.15 18.4525 1121.4 17.7736 1121.09 17.3391C1120.55 16.6192 1120.28 15.8181 1120.28 14.963C1120.28 14.2841 1120.44 13.6603 1120.77 13.1175C1121.08 12.5608 1121.55 12.1048 1122.11 11.7999C1122.69 11.4744 1123.32 11.3252 1124 11.3252C1124.71 11.3252 1125.39 11.5014 1126.02 11.8679C1126.65 12.2344 1127.29 12.8732 1127.99 13.8365L1128.07 13.9447L1126.65 15.0311L1126.57 14.922C1126.03 14.189 1125.56 13.7143 1125.18 13.4831C1124.82 13.2574 1124.4 13.139 1123.97 13.1436C1123.41 13.1436 1122.96 13.3068 1122.61 13.6603C1122.26 13.9997 1122.09 14.4203 1122.09 14.922C1122.09 15.2213 1122.15 15.5337 1122.27 15.8181C1122.4 16.1035 1122.64 16.4299 1122.97 16.7693C1123.11 16.9045 1123.54 17.271 1124.86 18.2492C1126.14 19.2125 1127.04 20.0807 1127.51 20.8417C1128 21.6017 1128.24 22.3897 1128.24 23.1637C1128.24 24.2762 1127.83 25.2675 1126.99 26.0955C1126.14 26.9236 1125.12 27.3442 1123.92 27.3442ZM1075.51 26.9376L1073.19 22.0092H1067L1064.7 26.9376H1062.76L1069.86 11.6777H1070.4L1077.39 26.9376H1075.51ZM1072.42 20.298L1070.12 15.3164L1067.8 20.2849H1072.42V20.298ZM1100.86 26.9376L1094.42 11.6777H1096.32L1101.12 23.0546L1106 11.6777H1107.9L1101.36 26.9376H1100.86ZM1112.86 11.6777H1114.62V26.9376H1112.86V11.6777ZM1028.81 26.9376L1022.88 18.3714V26.9376H1021.14V11.6777H1024.21C1025.88 11.6777 1026.99 11.7458 1027.57 11.8819C1028.44 12.0684 1029.22 12.5477 1029.78 13.2387C1030.34 13.9316 1030.63 14.7867 1030.63 15.792C1030.63 16.6332 1030.42 17.3792 1030.05 18.018C1029.66 18.6558 1029.09 19.1445 1028.36 19.4709C1027.7 19.7693 1027.1 19.9325 1025.96 19.9726L1030.98 26.9376H1028.81ZM1025.28 18.3845C1026.23 18.3845 1026.95 18.2893 1027.41 18.0991C1027.84 17.9303 1028.21 17.6188 1028.44 17.2169C1028.69 16.8094 1028.82 16.3478 1028.82 15.8592C1028.82 15.3705 1028.7 14.922 1028.44 14.5284C1028.21 14.1442 1027.86 13.8449 1027.45 13.6742C1027.03 13.4971 1026.33 13.4159 1025.33 13.4159H1022.87V18.3574L1025.28 18.3845ZM1089.24 26.9507L1083.31 18.3845V26.9507H1081.57V11.6777H1084.64C1086.31 11.6777 1087.42 11.7458 1088 11.8819C1088.87 12.0684 1089.65 12.5477 1090.21 13.2387C1090.77 13.9316 1091.06 14.7867 1091.06 15.792C1091.06 16.6332 1090.85 17.3792 1090.48 18.018C1090.09 18.6558 1089.52 19.1445 1088.79 19.4709C1088.13 19.7693 1087.53 19.9325 1086.39 19.9726L1091.41 26.9376H1089.24V26.9507ZM1085.71 18.3845C1086.66 18.3845 1087.38 18.2893 1087.84 18.0991C1088.27 17.9294 1088.64 17.6188 1088.87 17.2169C1089.11 16.8094 1089.25 16.3478 1089.25 15.8592C1089.25 15.3705 1089.13 14.922 1088.87 14.5284C1088.64 14.1442 1088.29 13.8449 1087.88 13.6742C1087.46 13.4971 1086.76 13.4159 1085.76 13.4159H1083.3V18.3574L1085.71 18.3845Z" fill="white"/>
</g>
</g>
<g clip-path="url(#clip13_2008_328)">
<g clip-path="url(#clip14_2008_328)">
<path d="M1186.75 23.6842H1178.43V30.6882H1176.29V15.839H1178.43V21.6585H1186.75V15.839H1188.9V30.7099H1186.75V23.6842ZM1202.16 15.623C1206.4 15.623 1209.63 18.9209 1209.63 23.274C1209.63 27.6063 1206.38 30.9249 1202.16 30.9249C1197.93 30.9249 1194.68 27.628 1194.68 23.274C1194.7 18.9209 1197.95 15.623 1202.16 15.623ZM1202.16 28.8776C1205.21 28.8776 1207.51 26.4643 1207.51 23.2315C1207.51 19.9988 1205.23 17.5846 1202.16 17.5846C1199.08 17.5846 1196.8 19.9988 1196.8 23.2315C1196.85 26.5067 1199.12 28.8776 1202.16 28.8776ZM1216.57 30.7099V15.839H1221.05C1223.41 15.839 1224.95 16.3558 1226.16 17.2394C1228.01 18.5974 1229.15 20.7957 1229.15 23.2957C1229.15 25.7533 1228 27.9939 1226.16 29.3519C1224.95 30.2356 1223.39 30.7533 1221.01 30.7533H1216.57V30.7099ZM1225.21 19.0935C1224.26 18.2956 1223.04 17.843 1220.94 17.843H1218.69V28.6842H1220.94C1223.04 28.6842 1224.26 28.2533 1225.21 27.4338C1226.36 26.4426 1227.01 24.9337 1227.01 23.2532C1227.03 21.5935 1226.36 20.0846 1225.21 19.0935ZM1236.04 15.839H1238.19V30.7099H1236.04V15.839ZM1248.2 19.7828V30.7099H1246.05V15.839H1247.57L1256.56 26.7661V15.839H1258.71V30.7099H1257.19L1248.2 19.7828ZM1266.55 15.839H1268.7V22.1103L1274.85 15.839H1277.69L1270.95 22.7355L1278.14 30.6882H1275.41L1268.74 23.2532V30.6882H1266.57V15.839H1266.55ZM1291.42 21.6585V23.6842H1286.53V28.6626H1293.16V30.6882H1284.38V15.839H1292.94V17.8647H1286.53V21.6793H1291.42V21.6585ZM1307.15 21.6585V23.6842H1302.26V28.6626H1308.89V30.6882H1300.11V15.839H1308.67V17.8647H1302.26V21.6793H1307.15V21.6585Z" fill="white"/>
</g>
</g>
</g>
<defs>
<linearGradient id="paint0_linear_2008_328" x1="0" y1="23.5079" x2="1354" y2="23.5079" gradientUnits="userSpaceOnUse">
<stop stop-opacity="0.5"/>
<stop offset="0.25"/>
<stop offset="0.75"/>
<stop offset="1" stop-opacity="0.5"/>
</linearGradient>
<clipPath id="clip0_2008_328">
<rect width="145.743" height="27.2681" fill="white" transform="translate(0 9.87402)"/>
</clipPath>
<clipPath id="clip1_2008_328">
<rect width="145.743" height="27.2675" fill="white" transform="translate(0 9.87402)"/>
</clipPath>
<clipPath id="clip2_2008_328">
<rect width="72.4014" height="36.6708" fill="white" transform="translate(192.757 5.17285)"/>
</clipPath>
<clipPath id="clip3_2008_328">
<rect width="90.2667" height="24.4472" fill="white" transform="translate(312.172 11.2842)"/>
</clipPath>
<clipPath id="clip4_2008_328">
<rect width="90.2667" height="24.2494" fill="white" transform="translate(312.172 11.2842)"/>
</clipPath>
<clipPath id="clip5_2008_328">
<rect width="166.429" height="11.2833" fill="white" transform="translate(449.453 17.8662)"/>
</clipPath>
<clipPath id="clip6_2008_328">
<rect width="160.827" height="11.2833" fill="white" transform="translate(449.453 17.8662)"/>
</clipPath>
<clipPath id="clip7_2008_328">
<rect width="139.161" height="27.2681" fill="white" transform="translate(662.896 9.87402)"/>
</clipPath>
<clipPath id="clip8_2008_328">
<rect width="139.161" height="27.2527" fill="white" transform="translate(662.896 9.87402)"/>
</clipPath>
<clipPath id="clip9_2008_328">
<rect width="103.431" height="25.3875" fill="white" transform="translate(849.07 10.8145)"/>
</clipPath>
<clipPath id="clip10_2008_328">
<rect width="103.431" height="25.3875" fill="white" transform="translate(849.07 10.8145)"/>
</clipPath>
<clipPath id="clip11_2008_328">
<rect width="129.758" height="24.4472" fill="white" transform="translate(999.516 11.2842)"/>
</clipPath>
<clipPath id="clip12_2008_328">
<rect width="128.951" height="24.4472" fill="white" transform="translate(999.516 11.2842)"/>
</clipPath>
<clipPath id="clip13_2008_328">
<rect width="132.579" height="15.9847" fill="white" transform="translate(1176.29 15.5156)"/>
</clipPath>
<clipPath id="clip14_2008_328">
<rect width="132.579" height="15.615" fill="white" transform="translate(1176.29 15.5156)"/>
</clipPath>
</defs>
</svg>
