<svg width="393" height="48" viewBox="0 0 393 48" fill="none" xmlns="http://www.w3.org/2000/svg">
<g opacity="0.8">
<mask id="mask0_2026_1415" style="mask-type:alpha" maskUnits="userSpaceOnUse" x="-299" y="0" width="1354" height="48">
<rect x="-299" width="1354" height="47.0139" fill="url(#paint0_linear_2026_1415)"/>
</mask>
<g mask="url(#mask0_2026_1415)">
</g>
<g clip-path="url(#clip0_2026_1415)">
<g clip-path="url(#clip1_2026_1415)">
<path d="M34.416 27.9013L34.4037 27.8608L42.447 20.5764V17.0665H29.5418V20.5764H37.2508L37.2631 20.6103L29.298 27.9013V31.4112H42.5769V27.9013H34.416ZM50.4987 16.7322C49.0093 16.7322 47.7957 16.9535 46.8589 17.3979C45.9861 17.7839 45.2508 18.4222 44.7471 19.2291C44.266 20.0397 43.9647 20.9417 43.8602 21.8766L47.7768 22.4217C47.9181 21.596 48.2015 21.0114 48.6261 20.6668C49.1091 20.3062 49.705 20.1245 50.3095 20.1518C51.1032 20.1518 51.6803 20.3617 52.039 20.7826C52.393 21.2025 52.5738 21.7843 52.5738 22.5526V22.9339H48.8097C46.8928 22.9339 45.5163 23.3548 44.6793 24.1955C43.8414 25.0363 43.4233 26.1463 43.4252 27.5247C43.4252 28.9369 43.8432 29.9886 44.6793 30.6778C45.5144 31.367 46.5651 31.7097 47.8324 31.705C49.4028 31.705 50.6108 31.1711 51.4562 30.1016C51.9552 29.4454 52.3111 28.6931 52.5032 27.8928H52.6463L53.1858 31.4027H56.7334V22.514C56.7334 20.6771 56.2447 19.2545 55.2656 18.2452C54.2864 17.2359 52.6971 16.7322 50.4987 16.7322ZM51.7387 27.6895C51.1757 28.1536 50.4385 28.3843 49.5215 28.3843C48.7645 28.3843 48.2382 28.2534 47.9444 27.9917C47.6535 27.7412 47.4916 27.375 47.5 26.9927C47.4831 26.6331 47.6168 26.2828 47.8682 26.0239C48.1403 25.7716 48.5046 25.6398 48.8765 25.6605H52.5795V25.9025C52.5945 26.5954 52.2838 27.2564 51.7387 27.6895ZM78.1874 17.0665H73.9958V31.4131H78.1874V17.0665ZM102.935 17.0665C101.751 17.0665 100.817 17.4798 100.135 18.3064C99.6452 18.9005 99.2724 19.778 99.0172 20.9398H98.8939L98.346 17.0665H94.7664V31.4112H98.9579V24.0543C98.9579 23.1279 99.1773 22.4161 99.617 21.9209C100.056 21.4275 100.866 21.179 102.047 21.179H103.638V17.0665H102.935ZM90.6106 17.5353C89.6314 16.9591 88.3971 16.6729 86.9076 16.6729C84.5614 16.6729 82.7255 17.3339 81.3998 18.6557C80.0742 19.9767 79.4114 21.7985 79.4114 24.1202C79.3775 25.5249 79.6882 26.9165 80.3143 28.1743C80.8895 29.2985 81.784 30.2306 82.8855 30.8548C83.9955 31.4894 85.3165 31.8076 86.8474 31.8085C88.1721 31.8085 89.2783 31.6071 90.1662 31.2031C91.0003 30.8416 91.7272 30.2739 92.278 29.5536C92.8014 28.8484 93.1903 28.0529 93.4256 27.2074L89.8131 26.2075C89.6615 26.7574 89.3687 27.2582 88.9639 27.6621C88.5562 28.0651 87.8717 28.2675 86.9133 28.2675C85.7731 28.2675 84.9229 27.9446 84.3637 27.2987C83.9579 26.8317 83.7027 26.1652 83.5907 25.3009H93.4803C93.5207 24.8979 93.5424 24.559 93.5424 24.2869V23.3934C93.5659 22.193 93.3155 21.002 92.809 19.9126C92.3335 18.9175 91.5671 18.0889 90.6106 17.5353ZM86.7862 20.0934C88.4856 20.0934 89.4497 20.92 89.6775 22.5752H83.6651C83.7611 22.0225 83.9918 21.5019 84.3383 21.0594C84.89 20.4135 85.7053 20.0915 86.7862 20.0934ZM76.1359 11.2847C75.4994 11.2621 74.8818 11.4975 74.4214 11.9353C73.9695 12.3768 73.7247 12.9869 73.7482 13.6168C73.7247 14.2495 73.9685 14.8643 74.4223 15.3115C74.8761 15.7606 75.4966 16.0016 76.1359 15.9771C76.7714 16.0016 77.3871 15.7597 77.8353 15.3115C78.2787 14.8586 78.516 14.2467 78.4915 13.6168C78.5207 12.9898 78.2825 12.3806 77.8353 11.9381C77.3853 11.4937 76.7704 11.2574 76.1378 11.2856L76.1359 11.2847ZM67.4778 16.6729C66.0505 16.6729 64.9028 17.1164 64.0357 18.0033C63.3936 18.6614 62.9238 19.6415 62.6234 20.9464H62.4888L61.9408 17.0721H58.3612V35.5359H62.5528V27.9314H62.7053C62.8343 28.4379 63.0132 28.9313 63.241 29.402C63.5969 30.1713 64.1788 30.8152 64.9094 31.2474C65.6682 31.6569 66.5231 31.8613 67.3865 31.8387C69.1414 31.8387 70.4774 31.1627 71.3954 29.8097C72.3134 28.4577 72.7719 26.5709 72.7719 24.1503C72.7719 21.8107 72.3284 19.9804 71.4406 18.6576C70.5518 17.3348 69.2309 16.6729 67.4778 16.6729ZM67.9024 27.069C67.4138 27.7695 66.6493 28.1197 65.608 28.1197C64.738 28.1602 63.902 27.7827 63.3606 27.1048C62.8174 26.4307 62.5472 25.508 62.5481 24.3368V24.0628C62.5481 22.8737 62.8192 21.9632 63.3606 21.3315C63.901 20.6997 64.6505 20.3871 65.608 20.3937C66.6672 20.3937 67.4373 20.7261 67.9175 21.3927C68.3977 22.0574 68.6377 22.9857 68.6377 24.1767C68.6406 25.4082 68.3967 26.3723 67.9062 27.069H67.9024ZM27.6748 27.9003H13.1719V31.415H27.6748V27.9003Z" fill="white"/>
</g>
</g>
<g clip-path="url(#clip2_2026_1415)">
<g clip-path="url(#clip3_2026_1415)">
<path d="M154.683 28.9999C153.103 28.9999 151.698 28.4511 150.471 27.3553L151.192 26.5039C151.743 27.0036 152.293 27.3698 152.842 27.6051C153.402 27.8396 154.03 27.9577 154.727 27.9577C155.415 27.9577 155.969 27.7969 156.39 27.4725C156.814 27.1399 157.024 26.7092 157.024 26.1813C157.024 25.6825 156.837 25.2863 156.465 24.9919C156.091 24.6984 155.385 24.4449 154.344 24.2296C153.116 23.9661 152.233 23.6081 151.693 23.1583C151.153 22.7076 150.884 22.0671 150.884 21.2357C150.884 20.4234 151.202 19.7537 151.84 19.224C152.479 18.6961 153.288 18.4316 154.272 18.4316C155.636 18.4316 156.844 18.8523 157.894 19.6946L157.217 20.5887C156.304 19.8464 155.312 19.4738 154.242 19.4738C153.584 19.4738 153.054 19.6356 152.65 19.9581C152.249 20.2716 152.046 20.6732 152.046 21.1621C152.046 21.67 152.239 22.0716 152.621 22.366C153.015 22.6595 153.756 22.923 154.846 23.1583C156.015 23.4127 156.863 23.7707 157.394 24.2296C157.933 24.6794 158.203 25.3009 158.203 26.0932C158.203 26.9637 157.874 27.6678 157.217 28.2076C156.559 28.7355 155.714 28.9999 154.683 28.9999ZM170.583 29.0144C169.277 29.0144 168.236 28.6273 167.46 27.855C166.684 27.0718 166.296 25.9705 166.296 24.5522V18.5788H167.46V24.4786C167.46 25.5844 167.735 26.4412 168.285 27.0472C168.845 27.6442 169.62 27.9432 170.611 27.9432C171.584 27.9432 172.345 27.6533 172.895 27.0763C173.444 26.5003 173.719 25.658 173.719 24.5522V18.5788H174.883V24.4649C174.883 25.9314 174.495 27.0572 173.719 27.8396C172.943 28.6228 171.898 29.0144 170.583 29.0144ZM183.525 28.8527V18.5779H187.383C188.56 18.5779 189.497 18.8714 190.196 19.4584C190.893 20.0454 191.241 20.8477 191.241 21.8653C191.241 22.9321 190.854 23.7598 190.078 24.345C189.312 24.9329 188.35 25.2264 187.191 25.2264H184.687V28.8518H183.525V28.8527ZM184.687 24.1714H187.235C188.089 24.1714 188.771 23.9661 189.282 23.5545C189.802 23.1329 190.063 22.5759 190.063 21.8808C190.063 21.1675 189.812 20.6178 189.312 20.2371C188.82 19.8464 188.148 19.6501 187.294 19.6501H184.687V24.1714ZM199.251 28.8527V18.5779H206.704V19.6347H200.415V23.142H206.041V24.1987H200.415V27.795H206.777V28.8518H199.251V28.8527ZM215.009 28.8527V18.5779H219.441C220.708 18.5779 221.684 18.9205 222.371 19.6056C222.902 20.1335 223.167 20.8186 223.167 21.66C223.167 22.4814 222.911 23.1465 222.402 23.6562C221.891 24.1651 221.213 24.4976 220.368 24.6539L223.536 28.8518H222.106L219.117 24.8602H216.172V28.8518H215.008L215.009 28.8527ZM216.172 23.8189H219.338C220.123 23.8189 220.761 23.6272 221.253 23.2455C221.743 22.8639 221.989 22.3406 221.989 21.6754C221.989 21.0403 221.753 20.546 221.282 20.1935C220.82 19.8318 220.177 19.6501 219.352 19.6501H216.172V23.8189ZM231.541 28.8527V18.5779H232.705V23.1429H238.654V18.5779H239.818V28.8536H238.654V24.2305H232.705V28.8536H231.541V28.8527ZM252.745 29.0144C251.438 29.0144 250.398 28.6273 249.622 27.855C248.847 27.0718 248.459 25.9705 248.459 24.5522V18.5788H249.622V24.4786C249.622 25.5844 249.897 26.4412 250.447 27.0472C251.008 27.6442 251.782 27.9432 252.774 27.9432C253.745 27.9432 254.507 27.6533 255.056 27.0763C255.606 26.5003 255.881 25.658 255.881 24.5522V18.5788H257.045V24.4649C257.045 25.9314 256.657 27.0572 255.881 27.8396C255.105 28.6228 254.06 29.0144 252.745 29.0144ZM265.686 28.8527V18.5779H266.864L270.619 24.1842L274.375 18.5779H275.553V28.8536H274.389V20.5297L270.635 26.0341H270.576L266.82 20.5451V28.8518H265.686V28.8527ZM283.479 28.8527L288.176 18.5061H289.266L293.964 28.8518H292.713L291.505 26.1368H285.893L284.671 28.8527H283.479ZM286.35 25.0955H291.048L288.707 19.8555L286.35 25.0955ZM301.887 28.8527V18.5779H302.977L309.471 26.811V18.5779H310.606V28.8536H309.679L303.022 20.4288V28.8536H301.887V28.8527Z" fill="white"/>
</g>
</g>
<g clip-path="url(#clip4_2026_1415)">
<g clip-path="url(#clip5_2026_1415)">
<path d="M472.815 19.394H469.519V30.9211H472.815V19.394ZM472.815 15.5952H469.519V18.144H472.815V15.5952ZM400.933 15.5952H397.487V30.9211H408.007V27.9829H400.933V15.5952ZM414.816 18.4356C411.148 18.4356 408.246 21.2506 408.246 24.7992C408.246 28.3478 411.148 31.1713 414.816 31.1713C418.483 31.1713 421.41 28.3553 421.41 24.8048C421.41 21.2543 418.505 18.4356 414.816 18.4356ZM414.816 28.1286C412.97 28.1286 411.592 26.7338 411.592 24.7898C411.592 22.8457 412.97 21.4622 414.816 21.4622C416.662 21.4622 418.039 22.8815 418.039 24.7898C418.039 26.6991 416.662 28.1286 414.816 28.1286ZM435.233 28.3252C434.642 28.3252 434.126 27.9829 434.126 26.9304V22.0359H437.269V19.394H434.126V16.0721H430.83V19.394H426.502V16.0721H423.205V19.394H421.41V22.0359H423.205V26.9793C423.205 29.7454 424.534 31.1656 426.993 31.1656C428.103 31.1684 429.19 30.8458 430.118 30.2382L429.186 27.8155C428.719 28.1296 428.173 28.3073 427.611 28.329C427.019 28.329 426.503 27.9866 426.503 26.9342V22.0359H430.832V26.9793C430.832 29.7454 432.159 31.1656 434.619 31.1656C435.73 31.1675 436.816 30.8449 437.745 30.2382L436.813 27.8155C436.344 28.1296 435.797 28.3064 435.233 28.3252ZM456.072 23.9377C455.569 20.4963 452.554 18.0622 449.241 18.5428C447.559 18.7714 446.04 19.6649 445.026 21.0211C444.013 22.3773 443.592 24.0834 443.857 25.7529C444.44 29.7501 447.896 31.6011 451.449 31.0857C453.058 30.8609 454.565 30.1705 455.783 29.0993L454.225 26.9492C453.335 27.7148 452.242 28.2077 451.078 28.3704C449.47 28.6017 447.966 27.9998 447.332 26.3896L456.17 25.1096C456.158 24.7174 456.126 24.3261 456.072 23.9377ZM446.967 24.2396C447.06 22.668 448.13 21.4735 449.542 21.2713C451.025 21.0418 452.448 21.9447 452.866 23.3809L446.967 24.2396ZM491.853 23.9377C491.35 20.4963 488.334 18.0622 485.023 18.5428C483.34 18.7714 481.821 19.6639 480.808 21.0211C479.795 22.3773 479.373 24.0834 479.639 25.7529C480.223 29.7501 483.674 31.6011 487.229 31.0857C488.839 30.8609 490.345 30.1705 491.562 29.0993L490.006 26.9492C489.115 27.7148 488.022 28.2077 486.857 28.3704C485.25 28.6017 483.746 27.9998 483.111 26.3896L491.95 25.1096C491.939 24.7174 491.907 24.3261 491.853 23.9377ZM482.748 24.2396C482.842 22.668 483.909 21.4735 485.323 21.2713C486.804 21.0408 488.226 21.9456 488.639 23.3809L482.748 24.2396ZM478.228 15.5952H474.932V30.9192H478.228V15.5952ZM498.679 23.2586C497.547 23.0131 496.514 22.793 496.514 22.1083C496.514 21.5948 497.228 21.2506 497.99 21.2506C499.182 21.2694 500.352 21.5628 501.41 22.1083L502.517 19.6592C501.142 18.8221 499.552 18.397 497.94 18.4356C495.628 18.4356 493.167 19.758 493.167 22.2541C493.167 24.6045 495.16 25.4077 497.597 26.0482C498.654 26.3426 499.714 26.5128 499.714 27.2483C499.714 27.9829 498.458 28.2763 497.694 28.2763C496.302 28.3026 494.945 27.8437 493.857 26.9774L492.676 29.5018C493.365 30.1376 495.061 31.1713 497.694 31.1713C499.984 31.1713 503.058 30.1677 503.058 27.1552C503.058 24.6534 500.778 23.7514 498.679 23.2586ZM442.366 19.394H439.07V30.9211H442.366V19.394ZM442.366 15.5952H439.07V18.144H442.366V15.5952ZM457.476 30.9211H460.914V24.6581H466.743V21.7519H460.914V18.5287H467.996V15.5952H457.476V30.9211ZM391.048 16.7088V30.053C391.048 33.8282 387.972 36.8878 384.178 36.8878H370.766C366.972 36.8878 363.896 33.8282 363.896 30.053V16.7088C363.896 12.9326 366.972 9.87305 370.766 9.87305H384.178C387.972 9.87305 391.048 12.9326 391.048 16.7088ZM384.533 15.9244C379.858 15.9244 378.127 19.2444 376.734 21.9118L375.824 23.6179C374.349 26.447 373.248 28.1663 370.409 28.1663C369.668 28.1663 369.067 28.7644 369.067 29.5018C369.067 30.2392 369.668 30.8364 370.409 30.8374C375.084 30.8374 376.816 27.5173 378.208 24.85L379.116 23.1429C380.593 20.3148 381.695 18.5955 384.533 18.5955C385.274 18.5955 385.875 17.9973 385.877 17.259C385.875 16.5207 385.274 15.9234 384.533 15.9244Z" fill="white"/>
</g>
</g>
</g>
<defs>
<linearGradient id="paint0_linear_2026_1415" x1="-299" y1="23.5069" x2="1055" y2="23.5069" gradientUnits="userSpaceOnUse">
<stop stop-opacity="0.5"/>
<stop offset="0.25"/>
<stop offset="0.75"/>
<stop offset="1" stop-opacity="0.5"/>
</linearGradient>
<clipPath id="clip0_2026_1415">
<rect width="90.2667" height="24.4472" fill="white" transform="translate(13.1719 11.2832)"/>
</clipPath>
<clipPath id="clip1_2026_1415">
<rect width="90.2667" height="24.2494" fill="white" transform="translate(13.1719 11.2832)"/>
</clipPath>
<clipPath id="clip2_2026_1415">
<rect width="166.429" height="11.2833" fill="white" transform="translate(150.453 17.8652)"/>
</clipPath>
<clipPath id="clip3_2026_1415">
<rect width="160.827" height="11.2833" fill="white" transform="translate(150.453 17.8652)"/>
</clipPath>
<clipPath id="clip4_2026_1415">
<rect width="139.161" height="27.2681" fill="white" transform="translate(363.896 9.87305)"/>
</clipPath>
<clipPath id="clip5_2026_1415">
<rect width="139.161" height="27.2527" fill="white" transform="translate(363.896 9.87305)"/>
</clipPath>
</defs>
</svg>
